<svg width="31" height="30" viewBox="0 0 31 30" fill="none" xmlns="http://www.w3.org/2000/svg">
<path d="M15.9141 0C7.63406 0 0.914062 6.72 0.914062 15C0.914062 23.28 7.63406 30 15.9141 30C24.1641 30 30.9141 23.28 30.9141 15C30.9141 6.72 24.1641 0 15.9141 0ZM25.8141 6.9C27.6141 9.09 28.6641 11.85 28.7241 14.88C28.3041 14.79 24.0741 13.95 19.8141 14.46C19.7241 14.25 19.6341 14.01 19.5441 13.8C19.2741 13.17 19.0041 12.54 18.7041 11.94C23.3841 10.05 25.5441 7.26 25.8141 6.9ZM15.9141 2.22C19.1541 2.22 22.1541 3.45 24.4041 5.43C24.1641 5.76 22.2441 8.34 17.6841 10.05C15.5841 6.18 13.2441 3.03 12.9141 2.55C13.8741 2.34 14.8641 2.22 15.9141 2.22ZM10.4541 3.42C10.7841 3.87 13.0641 7.05 15.1941 10.83C9.19406 12.42 3.91406 12.39 3.34406 12.39C4.21406 8.4 6.88406 5.1 10.4541 3.42ZM3.10406 15.03C3.10406 14.91 3.10406 14.76 3.10406 14.64C3.64406 14.67 9.88406 14.73 16.2741 12.81C16.6341 13.53 16.9941 14.25 17.3241 15C17.1741 15.06 16.9941 15.09 16.8141 15.15C10.2141 17.28 6.70406 23.1 6.40406 23.58C4.33406 21.3 3.10406 18.3 3.10406 15.03ZM15.9141 27.81C12.9441 27.81 10.2141 26.79 8.05406 25.11C8.29406 24.63 10.8741 19.62 18.1041 17.1C18.1341 17.07 18.1641 17.07 18.1941 17.07C19.9941 21.75 20.7441 25.65 20.9241 26.79C19.3941 27.45 17.6841 27.81 15.9141 27.81ZM23.0541 25.62C22.9341 24.84 22.2441 21.09 20.5641 16.5C24.5841 15.87 28.0941 16.92 28.5441 17.04C27.9741 20.61 25.9341 23.7 23.0541 25.62Z" fill="#AEA5BC"/>
</svg>
