<svg width="32" height="30" viewBox="0 0 32 30" fill="none" xmlns="http://www.w3.org/2000/svg">
<path fill-rule="evenodd" clip-rule="evenodd" d="M16.2852 0C7.79805 0 0.914062 6.88399 0.914062 15.3711C0.914062 22.1608 5.34622 27.9132 11.3815 29.9878C12.1359 30.0821 12.4188 29.6106 12.4188 29.2334C12.4188 28.8562 12.4188 27.9132 12.4188 26.593C8.17526 27.536 7.23225 24.5183 7.23225 24.5183C6.57214 22.7266 5.53482 22.2551 5.53482 22.2551C4.12031 21.3121 5.62912 21.3121 5.62912 21.3121C7.13794 21.4064 7.98666 22.9152 7.98666 22.9152C9.40117 25.2727 11.5701 24.6126 12.4188 24.2354C12.5131 23.1981 12.9846 22.538 13.3618 22.1608C9.96698 21.7836 6.38354 20.4634 6.38354 14.5224C6.38354 12.825 6.94934 11.5048 7.98666 10.3731C7.89235 10.0902 7.32655 8.48711 8.17526 6.41249C8.17526 6.41249 9.49548 6.03528 12.4188 8.01561C13.6447 7.6384 14.9649 7.5441 16.2852 7.5441C17.6054 7.5441 18.9256 7.7327 20.1515 8.01561C23.0749 6.03528 24.3951 6.41249 24.3951 6.41249C25.2438 8.48711 24.678 10.0902 24.5837 10.4674C25.5267 11.5048 26.1868 12.9193 26.1868 14.6167C26.1868 20.5577 22.6033 21.7836 19.2085 22.1608C19.7743 22.6323 20.2458 23.5753 20.2458 24.9898C20.2458 27.0645 20.2458 28.6676 20.2458 29.2334C20.2458 29.6106 20.5287 30.0821 21.2831 29.9878C27.4127 27.9132 31.7506 22.1608 31.7506 15.3711C31.6563 6.88399 24.7723 0 16.2852 0Z" fill="#AEA5BC"/>
</svg>
