<svg width="255" height="63" viewBox="0 0 255 63" fill="none" xmlns="http://www.w3.org/2000/svg">
<path d="M33.8252 29.1161V13.7651L23.1589 24.6641L21.4563 26.4052V49.2349L33.8252 36.5948L39 31.3072V38.7847L33.8252 44.0723L23.222 54.9081L21.4563 56.7124L16.2816 62V25.1142L5.17476 13.7651V43.9434L0 38.6557V1L19.5 20.9254L21.4563 18.9277L33.8252 6.28764L39 1V23.8284L33.8252 29.1161Z" fill="url(#paint0_linear_3754_5238)"/>
<path d="M81.75 23.05V40.5H78.25V29.15L73.575 40.5H70.925L66.225 29.15V40.5H62.725V23.05H66.7L72.25 36.025L77.8 23.05H81.75ZM98.7854 37.175H91.8354L90.6854 40.5H87.0104L93.2854 23.025H97.3604L103.635 40.5H99.9354L98.7854 37.175ZM97.8354 34.375L95.3104 27.075L92.7854 34.375H97.8354ZM123.781 40.5H120.281L112.356 28.525V40.5H108.856V23.025H112.356L120.281 35.025V23.025H123.781V40.5ZM133.615 23.05V40.5H130.115V23.05H133.615ZM150.648 37.175H143.698L142.548 40.5H138.873L145.148 23.025H149.223L155.498 40.5H151.798L150.648 37.175ZM149.698 34.375L147.173 27.075L144.648 34.375H149.698ZM170.916 39.075H177.191V40.5H169.166V23.025H170.916V39.075ZM192.688 36.35H184.738L183.213 40.5H181.363L187.738 23.25H189.713L196.063 40.5H194.213L192.688 36.35ZM192.163 34.9L188.713 25.45L185.263 34.9H192.163ZM214.922 40.5H213.172L203.497 25.8V40.5H201.747V23.025H203.497L213.172 37.7V23.025H214.922V40.5ZM226.936 23.025C228.869 23.025 230.527 23.375 231.911 24.075C233.294 24.775 234.352 25.7833 235.086 27.1C235.819 28.4167 236.186 29.9833 236.186 31.8C236.186 33.6 235.819 35.1583 235.086 36.475C234.352 37.775 233.294 38.775 231.911 39.475C230.527 40.1583 228.869 40.5 226.936 40.5H221.761V23.025H226.936ZM226.936 39.05C229.369 39.05 231.219 38.4167 232.486 37.15C233.769 35.8667 234.411 34.0833 234.411 31.8C234.411 29.5 233.769 27.7083 232.486 26.425C231.219 25.125 229.369 24.475 226.936 24.475H223.511V39.05H226.936ZM247.587 40.675C246.437 40.675 245.42 40.475 244.537 40.075C243.67 39.675 242.987 39.1167 242.487 38.4C241.987 37.6833 241.72 36.8833 241.687 36H243.537C243.62 36.85 243.995 37.6 244.662 38.25C245.329 38.8833 246.304 39.2 247.587 39.2C248.77 39.2 249.704 38.9 250.387 38.3C251.087 37.6833 251.437 36.9083 251.437 35.975C251.437 35.225 251.245 34.625 250.862 34.175C250.479 33.7083 250.004 33.3667 249.437 33.15C248.87 32.9167 248.087 32.6667 247.087 32.4C245.92 32.0833 244.995 31.775 244.312 31.475C243.629 31.175 243.045 30.7083 242.562 30.075C242.079 29.4417 241.837 28.5833 241.837 27.5C241.837 26.6 242.07 25.8 242.537 25.1C243.004 24.3833 243.662 23.825 244.512 23.425C245.362 23.025 246.337 22.825 247.437 22.825C249.054 22.825 250.354 23.225 251.337 24.025C252.337 24.8083 252.912 25.825 253.062 27.075H251.162C251.045 26.3583 250.654 25.725 249.987 25.175C249.32 24.6083 248.42 24.325 247.287 24.325C246.237 24.325 245.362 24.6083 244.662 25.175C243.962 25.725 243.612 26.4833 243.612 27.45C243.612 28.1833 243.804 28.775 244.187 29.225C244.57 29.675 245.045 30.0167 245.612 30.25C246.195 30.4833 246.979 30.7333 247.962 31C249.095 31.3167 250.012 31.6333 250.712 31.95C251.412 32.25 252.004 32.7167 252.487 33.35C252.97 33.9833 253.212 34.8333 253.212 35.9C253.212 36.7167 252.995 37.4917 252.562 38.225C252.129 38.9583 251.487 39.55 250.637 40C249.787 40.45 248.77 40.675 247.587 40.675Z" fill="white"/>
<defs>
<linearGradient id="paint0_linear_3754_5238" x1="40.6166" y1="-4.80953" x2="-2.41563" y2="-1.53085" gradientUnits="userSpaceOnUse">
<stop stop-color="#B445A3"/>
<stop offset="1" stop-color="#4D4A9B"/>
</linearGradient>
</defs>
</svg>
