<svg width="27" height="20" viewBox="0 0 27 20" fill="none" xmlns="http://www.w3.org/2000/svg">
<path d="M26.9167 2.30769C25.9167 2.76923 24.9167 2.92308 23.75 3.07692C24.9167 2.46154 25.75 1.53846 26.0833 0.307692C25.0833 0.923077 23.9167 1.23077 22.5833 1.53846C21.5833 0.615385 20.0833 0 18.5833 0C15.0833 0 12.4167 3.07692 13.25 6.15385C8.75 6 4.75 4 1.91667 0.923078C0.416667 3.23077 1.25 6.15385 3.58333 7.69231C2.75 7.69231 1.91667 7.38462 1.08333 7.07692C1.08333 9.38462 2.91667 11.5385 5.41667 12.1538C4.58334 12.3077 3.75 12.4615 2.91667 12.3077C3.58334 14.3077 5.58334 15.8462 8.08334 15.8462C6.08334 17.2308 3.08333 18 0.25 17.6923C2.75 19.0769 5.58334 20 8.58334 20C18.75 20 24.4167 12.1538 24.0833 4.92308C25.25 4.30769 26.25 3.38462 26.9167 2.30769Z" fill="#AEA5BC"/>
</svg>
